<svg enable-background="new 0 0 197.6 126.6" height="126.6" viewBox="0 0 197.6 126.6" width="197.6" xmlns="http://www.w3.org/2000/svg"><g fill="#fff"><ellipse cx="133.8" cy="63.1" rx="62.2" ry="62.1"/><path d="m8.6 60.2c-.2-.3-.5-.5-.9-.8-.3-.2-.8-.3-1.3-.3-.4 0-.9.1-1.2.3s-.5.5-.5.9c0 .3.1.5.3.8.2.2.4.3.8.4.3.1.5.2.9.2.3.1.5.1.8.1.4.1.9.2 1.2.4.4.1.8.3 1 .5.3.2.5.5.6.9.1.3.2.8.2 1.3 0 .6-.1 1.1-.4 1.5-.2.4-.5.8-1 1.1-.4.2-.9.4-1.4.5s-1.1.2-1.5.2c-.9 0-1.6-.1-2.3-.4-.6-.2-1.3-.8-1.8-1.5l1.4-1.3c.3.3.6.6 1.1.9.4.2.9.4 1.5.4.2 0 .5 0 .8-.1.2 0 .5-.1.6-.2.2-.1.3-.2.5-.4.1-.2.2-.3.2-.6s-.1-.5-.3-.8c-.2-.2-.4-.3-.6-.4s-.5-.2-.9-.2c-.3-.1-.5-.1-.8-.2-.4-.1-.9-.2-1.2-.3-.4-.1-.8-.3-1.1-.5s-.5-.5-.8-.9c-.2-.3-.2-.8-.2-1.3s.1-1.1.3-1.4c.2-.4.5-.8 1-1 .4-.3 1-.5 1.4-.7.4-.1 1-.2 1.5-.2.8 0 1.4.1 2 .4.6.2 1.2.8 1.5 1.3z"/><path d="m12.1 53.7c0-.4.1-.8.4-1.1s.6-.4 1.1-.4c.4 0 .8.1 1.1.4s.4.6.4 1.1-.1.8-.4 1.1-.6.4-1.1.4c-.4 0-.8-.1-1.1-.4-.2-.3-.4-.7-.4-1.1m.6 3.8h2v10.5h-2z"/><path d="m17.5 57.5h1.8v1.6c0-.1.2-.3.3-.5.2-.2.4-.4.8-.6.3-.2.6-.3 1.1-.5.4-.1.9-.2 1.3-.2.8 0 1.4.1 1.9.5.5.3 1 .9 1.3 1.5.3-.6.9-1.2 1.4-1.5.6-.3 1.3-.5 1.9-.5.9 0 1.5.1 2 .4.5.2 1 .6 1.2 1.1.3.4.5 1 .6 1.5s.2 1.2.2 1.7v6h-2v-5.9c0-.4 0-.8-.1-1.2 0-.3-.2-.8-.3-1-.2-.3-.4-.5-.6-.6-.3-.2-.6-.2-1.2-.2-1 0-1.6.3-2 .9s-.6 1.4-.6 2.3v5.7h-2v-5.5c0-.5 0-1-.1-1.4 0-.4-.1-.8-.3-1.1-.1-.3-.4-.5-.6-.8-.3-.2-.6-.2-1.2-.2-.3 0-.8.1-1.1.2s-.6.3-.9.6c-.2.3-.4.6-.6 1.1-.1.4-.2 1-.2 1.5v5.6h-2z"/><path d="m36.3 57.5h2v1.5c.4-.5 1-1 1.6-1.3s1.4-.4 2-.4c.9 0 1.5.1 2.3.4.6.3 1.2.6 1.7 1.2.4.5.9 1.1 1.1 1.7s.4 1.4.4 2.2-.1 1.5-.4 2.2c-.2.6-.6 1.3-1.1 1.7-.4.5-1.1.9-1.7 1.2s-1.4.4-2.3.4c-.8 0-1.5-.1-2.2-.4-.6-.3-1.2-.8-1.5-1.3v7.9h-2v-17zm5.5 1.6c-.5 0-1 .1-1.4.3s-.8.4-1.1.8c-.3.3-.5.8-.6 1.2-.2.4-.2 1-.2 1.5s.1 1.1.2 1.5c.2.4.4.9.6 1.2.3.3.6.5 1.1.8.4.2 1 .3 1.4.3.5 0 1-.1 1.4-.3s.8-.4 1.1-.8c.3-.3.5-.8.6-1.2s.2-1 .2-1.5-.1-1.1-.2-1.5c-.2-.4-.4-.9-.6-1.2-.3-.3-.6-.5-1.1-.8-.4-.2-.9-.3-1.4-.3"/><path d="m49.8 51.2h2v16.9h-2z"/><path d="m53.4 57.5h2.4l3.1 8.3 3-8.3h2.2l-5.1 12.8c-.2.4-.3.9-.5 1.3-.2.3-.4.8-.6 1s-.5.4-1 .6c-.4.1-.9.2-1.4.2-.3 0-.6 0-.9 0s-.6-.1-.9-.2l.2-1.8c.4.2.8.2 1.2.2.3 0 .5 0 .8-.1.2-.1.4-.2.5-.3s.3-.3.4-.5.2-.4.3-.8l.6-1.7z"/></g><path d="m83.4 58.8c.5-.5 1.2-.9 1.9-1.2.8-.2 1.5-.4 2.3-.4s1.4.1 2 .3c.5.2 1 .4 1.4.8.3.3.6.8.8 1.1.2.4.2.9.2 1.3v5.3 1.1s0 .6.1.9h-1.8c0-.5-.1-1.1-.1-1.6-.4.6-1 1.2-1.6 1.4-.6.3-1.3.4-2.2.4-.5 0-1-.1-1.4-.2s-.9-.3-1.2-.6c-.3-.2-.6-.6-.8-1s-.3-.9-.3-1.4c0-.6.1-1.3.4-1.7s.8-.9 1.3-1.1c.5-.3 1.2-.5 1.8-.6.8-.1 1.5-.2 2.3-.2h1.5v-.4c0-.2 0-.5-.1-.8s-.2-.5-.4-.8c-.2-.2-.4-.4-.8-.5-.3-.1-.6-.2-1.1-.2-.4 0-.8 0-1 .1-.3.1-.5.2-.8.3-.2.1-.4.2-.6.4-.2.1-.4.3-.5.4zm5.6 4.2c-.4 0-1 0-1.5.1-.5 0-1 .1-1.4.3-.4.1-.8.3-1 .6-.2.2-.4.6-.4 1.1 0 .6.2 1.1.6 1.3s1 .4 1.6.4c.5 0 1-.1 1.4-.3s.6-.4 1-.8c.2-.3.4-.6.5-1 .2-.2.2-.7.2-1v-.6h-1z"/><path d="m102.3 60.3c-.3-.4-.8-.6-1.2-.9-.4-.2-.9-.3-1.5-.3-.5 0-1.1.1-1.4.3-.4.2-.8.4-1 .9-.3.3-.5.8-.6 1.2s-.2 1-.2 1.4c0 .5.1 1 .2 1.4.2.4.4.9.6 1.2.3.3.6.5 1.1.8.4.2.9.3 1.4.3s1.1-.1 1.4-.3c.4-.2.8-.5 1.1-.9l1.4 1.4c-.5.5-1.1 1-1.8 1.3-.6.2-1.4.4-2.2.4-.9 0-1.6-.1-2.3-.4-.6-.2-1.3-.6-1.7-1.1-.5-.4-.9-1.1-1.2-1.7-.2-.7-.4-1.5-.4-2.3 0-.9.1-1.6.4-2.3.2-.6.6-1.3 1.1-1.7.5-.5 1.1-.9 1.7-1.2s1.4-.4 2.3-.4c.8 0 1.5.1 2.3.4s1.3.6 1.8 1.3z"/><path d="m112.6 60.3c-.3-.4-.8-.6-1.2-.9-.4-.2-.9-.3-1.5-.3-.5 0-1.1.1-1.4.3-.4.2-.8.4-1.1.9-.3.3-.5.8-.6 1.2s-.2 1-.2 1.4c0 .5.1 1 .2 1.4s.4.9.6 1.2c.3.3.6.5 1.1.8.4.2.9.3 1.4.3s1.1-.1 1.4-.3c.4-.2.8-.5 1.1-.9l1.4 1.4c-.5.5-1.1 1-1.8 1.3-.6.2-1.4.4-2.2.4-.9 0-1.5-.1-2.3-.4-.6-.2-1.3-.6-1.7-1.1-.5-.4-.9-1.1-1.2-1.7-.2-.6-.4-1.4-.4-2.3s.1-1.6.4-2.3c.2-.6.6-1.3 1.1-1.7.4-.5 1.1-.9 1.7-1.2s1.4-.4 2.3-.4c.8 0 1.5.1 2.3.4s1.3.6 1.8 1.3z"/><path d="m117 63.5c0 .4.1.9.3 1.3s.4.8.8 1c.3.2.8.4 1.2.6.4.1.9.2 1.3.2.6 0 1.2-.1 1.6-.4s.9-.6 1.3-1.2l1.5 1.2c-1.1 1.4-2.7 2.2-4.6 2.2-.9 0-1.6-.1-2.3-.4-.6-.3-1.3-.6-1.7-1.2-.4-.5-.9-1.1-1.1-1.7s-.4-1.4-.4-2.2.1-1.5.4-2.2c.3-.6.6-1.3 1.2-1.7.5-.5 1.1-.9 1.7-1.2s1.4-.4 2.2-.4c1 0 1.7.1 2.4.5.6.3 1.2.8 1.6 1.3s.8 1.1.9 1.8c.2.6.3 1.3.3 2v.8h-8.6zm6.4-1.6c0-.4-.1-.9-.2-1.2s-.3-.6-.5-1c-.2-.3-.5-.5-1-.6-.4-.1-.9-.2-1.3-.2-.5 0-1 .1-1.4.3s-.8.4-1.1.8c-.3.3-.5.6-.6 1-.1.3-.2.8-.2 1.1h6.3z"/><path d="m133.3 60.2c-.2-.3-.5-.5-.9-.8-.3-.2-.8-.3-1.3-.3-.4 0-.9.1-1.3.3-.3.2-.5.5-.5.9 0 .3.1.5.3.8.2.2.4.3.8.4.3.1.5.2.9.2.3.1.5.1.8.1.4.1.9.2 1.2.4.4.1.8.3 1 .5.3.2.5.5.6.9.1.3.2.8.2 1.3 0 .6-.1 1.1-.4 1.5-.2.4-.5.8-1 1.1-.4.2-.9.4-1.4.5s-1.1.2-1.5.2c-.9 0-1.6-.1-2.3-.4-.6-.2-1.3-.8-1.7-1.5l1.5-1.3c.3.3.6.6 1.1.9.4.2.9.4 1.5.4.2 0 .5 0 .8-.1.2 0 .5-.1.6-.2.2-.1.3-.2.5-.4.1-.2.2-.3.2-.6s-.1-.5-.3-.8c-.2-.2-.4-.3-.6-.4s-.5-.2-.9-.2c-.3-.1-.5-.1-.8-.2-.4-.1-.9-.2-1.2-.3-.4-.1-.8-.3-1.1-.5s-.5-.5-.8-.9c-.2-.3-.3-.8-.3-1.3s.1-1.1.3-1.4c.2-.4.5-.8 1-1 .3-.2.9-.4 1.3-.6.4-.1 1-.2 1.5-.2.8 0 1.4.1 2 .4.6.2 1.2.8 1.5 1.3z"/><path d="m142.9 60.2c-.2-.3-.5-.5-.9-.8-.3-.2-.8-.3-1.3-.3-.4 0-.9.1-1.2.3s-.5.5-.5.9c0 .3.1.5.3.8.2.2.4.3.8.4.3.1.5.2.9.2.3.1.5.1.8.1.4.1.9.2 1.2.4.4.1.8.3 1 .5.3.2.5.5.6.9.1.3.2.8.2 1.3 0 .6-.1 1.1-.4 1.5-.2.4-.5.8-1 1.1-.4.2-.9.4-1.4.5s-1.1.2-1.5.2c-.9 0-1.6-.1-2.3-.4-.6-.2-1.3-.8-1.7-1.5l1.5-1.3c.3.3.6.6 1.1.9.4.2.9.4 1.5.4.2 0 .5 0 .8-.1.2 0 .5-.1.6-.2.2-.1.3-.2.5-.4.1-.2.2-.3.2-.6s-.1-.5-.3-.8c-.2-.2-.4-.3-.6-.4s-.5-.2-.9-.2c-.3-.1-.5-.1-.8-.2-.4-.1-.9-.2-1.2-.3-.4-.1-.8-.3-1.1-.5s-.5-.5-.8-.9c-.2-.3-.2-.8-.2-1.3s.1-1.1.3-1.4c.2-.4.5-.8 1-1 .3-.2.9-.4 1.3-.6.4-.1 1-.2 1.5-.2.8 0 1.4.1 2 .4.6.2 1.2.8 1.6 1.3z"/><path d="m146.6 53.7c0-.4.1-.8.4-1.1s.6-.4 1.1-.4c.4 0 .8.1 1.1.4s.4.6.4 1.1-.1.8-.4 1.1-.6.4-1.1.4c-.4 0-.8-.1-1.1-.4s-.4-.7-.4-1.1m.4 3.8h2v10.5h-2z"/><path d="m152 51.2h2v7.8c.3-.5.9-1 1.5-1.3s1.4-.4 2.2-.4c.9 0 1.5.1 2.3.4.6.3 1.2.6 1.7 1.2.4.5.9 1.1 1.1 1.7s.4 1.4.4 2.2-.1 1.5-.4 2.2c-.2.6-.6 1.3-1.1 1.7-.4.5-1.1.9-1.7 1.2s-1.4.4-2.3.4c-.8 0-1.4-.1-2-.4s-1.2-.8-1.6-1.3v1.4h-2v-16.8zm5.5 15.2c.5 0 1-.1 1.4-.3s.8-.4 1.1-.8c.3-.3.5-.8.6-1.2.2-.4.2-1 .2-1.5s-.1-1.1-.2-1.5c-.2-.4-.4-.9-.6-1.2-.3-.3-.6-.5-1.1-.8-.4-.2-1-.3-1.4-.3-.5 0-1 .1-1.4.3s-.8.4-1.1.8c-.3.3-.5.8-.6 1.2-.2.4-.2 1-.2 1.5s.1 1.1.2 1.5c.2.4.4.9.6 1.2.3.3.6.5 1.1.8.3.3.8.3 1.4.3"/><path d="m165.4 51.2h2v16.9h-2z"/><path d="m171.9 63.5c0 .4.1.9.3 1.3s.4.8.8 1c.3.2.8.4 1.2.6.4.1.9.2 1.3.2.6 0 1.2-.1 1.6-.4s.9-.6 1.3-1.2l1.5 1.2c-1.1 1.4-2.7 2.2-4.6 2.2-.9 0-1.6-.1-2.3-.4-.6-.3-1.3-.6-1.7-1.2-.4-.5-.9-1.1-1.1-1.7s-.4-1.4-.4-2.2.1-1.5.4-2.2c.3-.6.6-1.3 1.2-1.7.4-.5 1.1-.9 1.7-1.2s1.4-.4 2.2-.4c1 0 1.7.1 2.4.5.6.3 1.2.8 1.6 1.3s.8 1.1.9 1.8c.2.6.3 1.3.3 2v.8h-8.5v-.3zm6.3-1.6c0-.4-.1-.9-.2-1.2s-.3-.6-.5-1c-.2-.3-.5-.5-1-.6-.4-.1-.9-.2-1.3-.2-.5 0-1 .1-1.4.3s-.8.4-1.1.8c-.3.3-.5.6-.6 1-.1.3-.2.8-.2 1.1h6.3z"/><path d="m183.6 68.2c-.4 0-.8-.1-1.1-.4s-.4-.6-.4-1.1c0-.4.1-.8.4-1.1s.6-.4 1.1-.4c.4 0 .8.1 1.1.4s.4.6.4 1.1c0 .4-.1.8-.4 1.1-.3.2-.7.4-1.1.4"/></svg>